<svg xmlns="http://www.w3.org/2000/svg" id="TOP_TEN_6" name="TOP_TEN_6" data-testid="TOP_TEN_6" width="100%" height="100%" fill="#000" viewBox="0 0 76 99" class="style__StyledSVG-sc-1q4gzla-0 jAtUyH"><g id="surface1"><path d="M 39.171875 98.914062 C 26.816406 98.914062 17.023438 94.535156 10.058594 85.890625 C 3.382812 77.609375 0 66.105469 0 51.703125 C 0 41.695312 1.710938 32.773438 5.082031 25.1875 C 8.558594 17.363281 13.5625 11.175781 19.953125 6.789062 C 26.4375 2.339844 34.0625 0.0859375 42.621094 0.0859375 C 53.203125 0.0859375 62.988281 3.316406 71.710938 9.695312 L 75.023438 12.117188 L 64.976562 38.015625 C 67.828125 40.433594 70.191406 43.371094 72.035156 46.789062 C 74.667969 51.679688 76 57.367188 76 63.699219 C 76 70.503906 74.425781 76.636719 71.324219 81.933594 C 68.195312 87.269531 63.777344 91.492188 58.1875 94.480469 C 52.683594 97.425781 46.285156 98.914062 39.171875 98.914062 Z M 39.046875 57.546875 C 37.199219 57.546875 35.988281 58.015625 35 59.121094 C 33.886719 60.359375 33.34375 62.175781 33.34375 64.675781 C 33.34375 67.128906 33.925781 68.984375 35.117188 70.359375 C 36.148438 71.546875 37.320312 72.050781 39.046875 72.050781 C 40.859375 72.050781 42.070312 71.546875 43.097656 70.359375 C 44.292969 68.984375 44.875 67.085938 44.875 64.554688 C 44.875 62.160156 44.324219 60.394531 43.191406 59.15625 C 42.15625 58.027344 40.917969 57.546875 39.046875 57.546875 Z M 44.347656 30.804688 C 48.828125 30.804688 52.980469 31.566406 56.753906 33.066406 C 54.609375 31.371094 52.644531 30.136719 50.894531 29.382812 C 48.835938 28.5 46.632812 28.050781 44.347656 28.050781 C 40.570312 28.050781 37.734375 29.269531 35.6875 31.824219 C 38.3125 31.148438 41.207031 30.804688 44.347656 30.804688 Z M 44.347656 30.804688 " style="stroke: none; fill-rule: nonzero; fill: rgb(255, 255, 255); fill-opacity: 1;"/><path d="M 39.171875 96.773438 C 27.503906 96.773438 18.277344 92.660156 11.742188 84.554688 C 5.382812 76.660156 2.15625 65.609375 2.15625 51.703125 C 2.15625 41.996094 3.804688 33.367188 7.054688 26.050781 C 10.367188 18.597656 15.121094 12.707031 21.179688 8.546875 C 27.296875 4.351562 34.507812 2.226562 42.621094 2.226562 C 52.730469 2.226562 62.089844 5.320312 70.429688 11.417969 L 72.417969 12.875 L 63.457031 35.976562 L 59.96875 32.949219 C 56.953125 30.328125 54.1875 28.464844 51.753906 27.417969 C 49.417969 26.417969 46.925781 25.910156 44.347656 25.910156 C 36.726562 25.910156 33.039062 30.40625 31.195312 35.835938 C 34.765625 33.914062 39.160156 32.949219 44.347656 32.949219 C 50.09375 32.949219 55.253906 34.273438 59.683594 36.886719 C 64.125 39.503906 67.640625 43.175781 70.132812 47.800781 C 72.59375 52.375 73.84375 57.722656 73.84375 63.699219 C 73.84375 70.121094 72.367188 75.894531 69.460938 80.859375 C 66.535156 85.847656 62.398438 89.796875 57.164062 92.597656 C 51.980469 95.367188 45.925781 96.773438 39.171875 96.773438 Z M 39.046875 55.40625 C 36.589844 55.40625 34.789062 56.132812 33.386719 57.695312 C 31.90625 59.34375 31.1875 61.628906 31.1875 64.675781 C 31.1875 67.664062 31.941406 69.980469 33.484375 71.757812 C 34.925781 73.417969 36.691406 74.195312 39.046875 74.195312 C 41.484375 74.195312 43.289062 73.417969 44.734375 71.757812 C 46.277344 69.976562 47.03125 67.621094 47.03125 64.554688 C 47.03125 61.605469 46.296875 59.367188 44.789062 57.71875 C 43.34375 56.140625 41.519531 55.40625 39.046875 55.40625 Z M 39.046875 55.40625 " style="stroke: none; fill-rule: nonzero; fill: rgb(0, 0, 0); fill-opacity: 1;"/><path d="M 39.171875 93.5625 C 28.488281 93.5625 20.1875 89.890625 14.269531 82.546875 C 8.351562 75.203125 5.394531 64.921875 5.394531 51.703125 C 5.394531 42.402344 6.933594 34.285156 10.015625 27.347656 C 13.097656 20.414062 17.429688 15.027344 23.019531 11.191406 C 28.609375 7.355469 35.144531 5.4375 42.621094 5.4375 C 52.070312 5.4375 60.703125 8.296875 68.511719 14.007812 L 62.101562 30.527344 C 58.8125 27.671875 55.792969 25.65625 53.039062 24.472656 C 50.285156 23.289062 47.386719 22.695312 44.347656 22.695312 C 33.417969 22.695312 27.375 30.203125 26.226562 45.214844 C 29.511719 39.179688 35.554688 36.160156 44.347656 36.160156 C 49.527344 36.160156 54.085938 37.324219 58.03125 39.648438 C 61.976562 41.972656 65.058594 45.199219 67.277344 49.316406 C 69.496094 53.4375 70.605469 58.234375 70.605469 63.699219 C 70.605469 69.574219 69.292969 74.753906 66.664062 79.242188 C 64.03125 83.730469 60.355469 87.242188 55.628906 89.769531 C 50.902344 92.296875 45.414062 93.5625 39.171875 93.5625 Z M 39.046875 77.40625 C 42.417969 77.40625 45.128906 76.222656 47.183594 73.855469 C 49.238281 71.492188 50.265625 68.390625 50.265625 64.554688 C 50.265625 60.800781 49.238281 57.804688 47.183594 55.558594 C 45.128906 53.316406 42.417969 52.191406 39.046875 52.191406 C 35.675781 52.191406 32.984375 53.316406 30.972656 55.558594 C 28.957031 57.804688 27.953125 60.84375 27.953125 64.675781 C 27.953125 68.429688 28.980469 71.492188 31.035156 73.855469 C 33.085938 76.222656 35.761719 77.40625 39.046875 77.40625 Z M 39.046875 77.40625 " style="stroke: none; fill-rule: nonzero; fill: rgb(255, 255, 255); fill-opacity: 1;"/></g></svg>