<svg xmlns="http://www.w3.org/2000/svg" id="TOP_TEN_3" name="TOP_TEN_3" data-testid="TOP_TEN_3" width="100%" height="100%" fill="#000" viewBox="0 0 75 100" class="style__StyledSVG-sc-1q4gzla-0 jAtUyH"><g id="surface1"><path d="M 38.042969 99.84375 C 24.585938 99.84375 12.824219 95.578125 3.078125 87.164062 L 0 84.507812 L 13.078125 56.289062 L 18.589844 61.90625 C 19.042969 62.367188 19.496094 62.8125 19.949219 63.234375 L 19.949219 37.867188 L 15.035156 42.820312 L 3.417969 14.648438 L 6.15625 12.101562 C 14.691406 4.175781 25.292969 0.15625 37.667969 0.15625 C 44.339844 0.15625 50.34375 1.28125 55.519531 3.496094 C 60.90625 5.808594 65.203125 9.101562 68.296875 13.28125 C 71.507812 17.632812 73.136719 22.714844 73.136719 28.394531 C 73.136719 33.980469 71.53125 38.988281 68.359375 43.28125 C 67.253906 44.785156 65.972656 46.183594 64.539062 47.46875 C 71.398438 52.347656 75 59.648438 75 68.765625 C 75 75.023438 73.371094 80.59375 70.15625 85.3125 C 66.992188 89.957031 62.542969 93.601562 56.925781 96.148438 C 51.519531 98.601562 45.164062 99.84375 38.042969 99.84375 Z M 20.15625 63.425781 C 25.339844 68.199219 30.597656 70.523438 36.179688 70.523438 C 38.59375 70.523438 40.488281 70.074219 41.667969 69.21875 C 42.300781 68.757812 42.667969 68.253906 42.667969 67.035156 C 42.667969 65.765625 42.28125 65.25 41.617188 64.785156 C 40.347656 63.898438 38.25 63.425781 35.558594 63.425781 Z M 36.675781 34.351562 C 38.542969 34.351562 39.988281 34 40.851562 33.328125 C 41.386719 32.917969 41.546875 32.570312 41.546875 31.851562 C 41.546875 30.796875 41.261719 30.59375 40.957031 30.375 C 40.300781 29.910156 38.941406 29.351562 36.179688 29.351562 C 31.9375 29.351562 27.832031 30.992188 23.710938 34.351562 Z M 36.675781 34.351562 " style="stroke: none; fill-rule: nonzero; fill: rgb(255, 255, 255); fill-opacity: 1;"/><path d="M 38.042969 97.683594 C 25.125 97.683594 13.839844 93.597656 4.5 85.53125 L 2.65625 83.9375 L 13.730469 60.046875 L 17.039062 63.417969 C 23.15625 69.652344 29.417969 72.683594 36.179688 72.683594 C 39.097656 72.683594 41.375 72.105469 42.949219 70.964844 C 44.253906 70.011719 44.839844 68.800781 44.839844 67.035156 C 44.839844 65.210938 44.230469 63.972656 42.871094 63.019531 C 41.207031 61.855469 38.746094 61.265625 35.558594 61.265625 L 22.121094 61.265625 L 22.121094 36.511719 L 36.675781 36.511719 C 39.066406 36.511719 40.917969 36.015625 42.183594 35.035156 C 43.246094 34.214844 43.722656 33.234375 43.722656 31.851562 C 43.722656 29.945312 42.964844 29.148438 42.222656 28.621094 C 40.894531 27.671875 38.859375 27.191406 36.179688 27.191406 C 30.332031 27.191406 24.796875 29.90625 19.257812 35.484375 L 15.796875 38.976562 L 5.996094 15.210938 L 7.640625 13.683594 C 15.757812 6.140625 25.863281 2.316406 37.667969 2.316406 C 44.042969 2.316406 49.757812 3.378906 54.660156 5.480469 C 59.6875 7.636719 63.683594 10.691406 66.546875 14.5625 C 69.480469 18.53125 70.964844 23.183594 70.964844 28.394531 C 70.964844 33.507812 69.5 38.085938 66.609375 42.003906 C 65.03125 44.140625 63.097656 46.039062 60.828125 47.675781 C 68.707031 52.089844 72.828125 59.273438 72.828125 68.765625 C 72.828125 74.585938 71.324219 79.746094 68.359375 84.101562 C 65.421875 88.410156 61.273438 91.804688 56.027344 94.183594 C 50.902344 96.507812 44.851562 97.683594 38.042969 97.683594 Z M 38.042969 97.683594 " style="stroke: none; fill-rule: nonzero; fill: rgb(35, 31, 32); fill-opacity: 1;"/><path d="M 38.042969 94.445312 C 25.878906 94.445312 15.40625 90.660156 6.636719 83.085938 L 14.707031 65.679688 C 21.410156 72.511719 28.566406 75.925781 36.179688 75.925781 C 39.820312 75.925781 42.714844 75.144531 44.867188 73.582031 C 47.019531 72.019531 48.097656 69.835938 48.097656 67.039062 C 48.097656 64.15625 46.976562 61.933594 44.746094 60.371094 C 42.511719 58.808594 39.449219 58.023438 35.558594 58.023438 L 25.378906 58.023438 L 25.378906 39.753906 L 36.675781 39.753906 C 39.820312 39.753906 42.324219 39.035156 44.1875 37.59375 C 46.046875 36.152344 46.980469 34.238281 46.980469 31.851562 C 46.980469 29.300781 46.027344 27.34375 44.125 25.988281 C 42.21875 24.628906 39.570312 23.953125 36.179688 23.953125 C 29.476562 23.953125 23.0625 27.039062 16.941406 33.210938 L 9.863281 16.050781 C 17.394531 9.054688 26.664062 5.554688 37.667969 5.554688 C 43.628906 5.554688 48.859375 6.523438 53.371094 8.457031 C 57.878906 10.390625 61.398438 13.066406 63.921875 16.480469 C 66.445312 19.898438 67.707031 23.871094 67.707031 28.394531 C 67.707031 32.824219 66.46875 36.722656 63.984375 40.085938 C 61.503906 43.449219 58.027344 46.117188 53.558594 48.085938 C 64.230469 51.472656 69.570312 58.363281 69.570312 68.765625 C 69.570312 73.949219 68.265625 78.457031 65.660156 82.285156 C 63.054688 86.109375 59.390625 89.09375 54.675781 91.234375 C 49.957031 93.375 44.414062 94.445312 38.042969 94.445312 Z M 38.042969 94.445312 " style="stroke: none; fill-rule: nonzero; fill: rgb(255, 255, 255); fill-opacity: 1;"/></g></svg>