<svg xmlns="http://www.w3.org/2000/svg" id="TOP_TEN_9" name="TOP_TEN_9" data-testid="TOP_TEN_9" width="100%" height="100%" fill="#000" viewBox="0 0 77 100" class="style__StyledSVG-sc-1q4gzla-0 jAtUyH"><g id="surface1"><path d="M 33.78125 99.875 C 21.828125 99.875 11.519531 96.484375 3.132812 89.796875 L 0 87.300781 L 10.609375 60.664062 C 8.230469 58.402344 6.230469 55.738281 4.628906 52.695312 C 2.039062 47.777344 0.726562 42.089844 0.726562 35.792969 C 0.726562 28.773438 2.28125 22.507812 5.347656 17.171875 C 8.453125 11.765625 12.890625 7.507812 18.539062 4.523438 C 24.058594 1.605469 30.480469 0.125 37.625 0.125 C 50.324219 0.125 60.25 4.609375 67.128906 13.460938 C 73.679688 21.890625 77 33.976562 77 49.382812 C 77 59.414062 75.296875 68.269531 71.933594 75.695312 C 68.457031 83.378906 63.40625 89.394531 56.925781 93.574219 C 50.441406 97.757812 42.652344 99.875 33.78125 99.875 Z M 17.820312 65.714844 C 22.078125 69.707031 26.945312 71.648438 32.667969 71.648438 C 36.726562 71.648438 39.480469 70.582031 41.332031 68.292969 C 41.503906 68.078125 41.667969 67.851562 41.832031 67.613281 C 38.871094 68.449219 35.558594 68.867188 31.921875 68.867188 C 26.769531 68.871094 22.039062 67.808594 17.820312 65.714844 Z M 37.746094 27.113281 C 35.992188 27.113281 34.78125 27.636719 33.699219 28.863281 C 32.484375 30.242188 31.890625 32.144531 31.890625 34.683594 C 31.890625 37.046875 32.445312 38.757812 33.636719 40.058594 C 34.722656 41.246094 35.953125 41.753906 37.746094 41.753906 C 39.585938 41.753906 40.792969 41.269531 41.785156 40.140625 C 42.925781 38.839844 43.480469 37.015625 43.480469 34.558594 C 43.480469 32 42.914062 30.101562 41.753906 28.753906 C 40.761719 27.605469 39.5625 27.113281 37.746094 27.113281 Z M 37.746094 27.113281 " style="stroke: none; fill-rule: nonzero; fill: rgb(255, 255, 255); fill-opacity: 1;"/><path d="M 33.78125 97.714844 C 22.335938 97.714844 12.476562 94.484375 4.488281 88.109375 L 2.605469 86.609375 L 12.027344 62.960938 L 15.527344 66.503906 C 20.386719 71.421875 25.996094 73.8125 32.667969 73.8125 C 37.371094 73.8125 40.757812 72.449219 43.019531 69.648438 C 44.226562 68.152344 45.207031 66.148438 45.953125 63.652344 C 42.191406 65.683594 37.503906 66.707031 31.921875 66.707031 C 26.304688 66.707031 21.234375 65.367188 16.851562 62.714844 C 12.472656 60.070312 9.003906 56.359375 6.550781 51.691406 C 4.125 47.085938 2.894531 41.738281 2.894531 35.792969 C 2.894531 29.15625 4.351562 23.253906 7.226562 18.246094 C 10.128906 13.199219 14.277344 9.222656 19.554688 6.433594 C 24.757812 3.679688 30.839844 2.285156 37.625 2.285156 C 49.617188 2.285156 58.964844 6.492188 65.414062 14.785156 C 71.664062 22.824219 74.832031 34.464844 74.832031 49.382812 C 74.832031 59.105469 73.191406 67.660156 69.957031 74.804688 C 66.652344 82.105469 61.871094 87.808594 55.746094 91.757812 C 49.617188 95.710938 42.230469 97.714844 33.78125 97.714844 Z M 37.746094 24.953125 C 35.371094 24.953125 33.566406 25.742188 32.074219 27.433594 C 30.492188 29.226562 29.722656 31.597656 29.722656 34.683594 C 29.722656 37.578125 30.480469 39.816406 32.035156 41.515625 C 33.53125 43.152344 35.34375 43.917969 37.746094 43.917969 C 40.207031 43.917969 42.007812 43.167969 43.417969 41.5625 C 44.917969 39.855469 45.648438 37.5625 45.648438 34.558594 C 45.648438 31.460938 44.910156 29.101562 43.398438 27.34375 C 41.988281 25.714844 40.195312 24.953125 37.746094 24.953125 Z M 37.746094 24.953125 " style="stroke: none; fill-rule: nonzero; fill: rgb(0, 0, 0); fill-opacity: 1;"/><path d="M 33.78125 94.472656 C 23.042969 94.472656 13.953125 91.507812 6.519531 85.578125 L 13.210938 68.777344 C 18.664062 74.296875 25.148438 77.054688 32.667969 77.054688 C 38.367188 77.054688 42.664062 75.261719 45.554688 71.679688 C 48.445312 68.097656 50.179688 62.394531 50.757812 54.570312 C 47.371094 60.5 41.09375 63.464844 31.921875 63.464844 C 26.882812 63.464844 22.421875 62.292969 18.539062 59.945312 C 14.65625 57.597656 11.617188 54.34375 9.429688 50.183594 C 7.242188 46.027344 6.148438 41.230469 6.148438 35.792969 C 6.148438 29.699219 7.445312 24.386719 10.050781 19.859375 C 12.652344 15.328125 16.328125 11.808594 21.078125 9.296875 C 25.828125 6.785156 31.34375 5.527344 37.625 5.527344 C 48.609375 5.527344 57.015625 9.277344 62.84375 16.769531 C 68.667969 24.265625 71.578125 35.136719 71.578125 49.382812 C 71.578125 58.691406 70.050781 66.71875 66.992188 73.472656 C 63.9375 80.226562 59.597656 85.414062 53.980469 89.039062 C 48.363281 92.660156 41.628906 94.472656 33.78125 94.472656 Z M 37.746094 47.160156 C 41.132812 47.160156 43.839844 46.007812 45.863281 43.699219 C 47.886719 41.394531 48.902344 38.347656 48.902344 34.558594 C 48.902344 30.6875 47.886719 27.578125 45.863281 25.230469 C 43.839844 22.882812 41.132812 21.710938 37.746094 21.710938 C 34.441406 21.710938 31.738281 22.90625 29.628906 25.292969 C 27.523438 27.683594 26.46875 30.8125 26.46875 34.683594 C 26.46875 38.386719 27.523438 41.394531 29.628906 43.699219 C 31.738281 46.007812 34.441406 47.160156 37.746094 47.160156 Z M 37.746094 47.160156 " style="stroke: none; fill-rule: nonzero; fill: rgb(255, 255, 255); fill-opacity: 1;"/></g></svg>