<svg xmlns="http://www.w3.org/2000/svg" id="TOP_TEN_10" name="TOP_TEN_10" data-testid="TOP_TEN_10" width="100%" height="100%" fill="#000" viewBox="0 0 134 100" class="style__StyledSVG-sc-1q4gzla-0 jAtUyH"><g id="surface1"><path d="M 21.835938 97.945312 L 21.835938 42.445312 L 11.445312 50.605469 L 0 22.859375 L 28.40625 2.054688 L 53.453125 2.054688 L 53.453125 97.945312 Z M 21.835938 97.945312 " style="stroke: none; fill-rule: nonzero; fill: rgb(255, 255, 255); fill-opacity: 1;"/><path d="M 23.984375 95.785156 L 23.984375 38.015625 L 12.347656 47.15625 L 2.632812 23.601562 L 29.105469 4.214844 L 51.304688 4.214844 L 51.304688 95.785156 Z M 23.984375 95.785156 " style="stroke: none; fill-rule: nonzero; fill: rgb(0, 0, 0); fill-opacity: 1;"/><path d="M 27.207031 92.550781 L 27.207031 31.375 L 13.703125 41.984375 L 6.582031 24.71875 L 30.15625 7.449219 L 48.082031 7.449219 L 48.082031 92.550781 Z M 27.207031 92.550781 " style="stroke: none; fill-rule: nonzero; fill: rgb(255, 255, 255); fill-opacity: 1;"/><path d="M 93.511719 99.792969 C 85.257812 99.792969 77.96875 97.703125 71.851562 93.574219 C 65.765625 89.46875 61.042969 83.554688 57.816406 75.988281 C 54.71875 68.726562 53.148438 59.984375 53.148438 50 C 53.148438 40.019531 54.71875 31.273438 57.816406 24.011719 C 61.042969 16.449219 65.765625 10.535156 71.851562 6.425781 C 77.96875 2.296875 85.257812 0.207031 93.511719 0.207031 C 101.765625 0.207031 109.050781 2.296875 115.167969 6.425781 C 121.25 10.527344 125.988281 16.4375 129.257812 23.984375 C 132.402344 31.257812 134 40.011719 134 50 C 134 60.074219 132.402344 68.867188 129.257812 76.136719 C 125.984375 83.699219 121.238281 89.589844 115.148438 93.652344 C 109.035156 97.726562 101.757812 99.792969 93.511719 99.792969 Z M 93.511719 30.605469 C 91.953125 30.605469 90.140625 31.027344 88.5 34.144531 C 86.671875 37.613281 85.746094 42.949219 85.746094 50 C 85.746094 57.054688 86.671875 62.386719 88.496094 65.851562 C 90.140625 68.972656 91.953125 69.394531 93.511719 69.394531 C 95.074219 69.394531 96.902344 68.964844 98.59375 65.777344 C 100.457031 62.269531 101.402344 57.003906 101.402344 50.125 C 101.402344 43.09375 100.441406 37.757812 98.554688 34.257812 C 96.578125 30.605469 94.507812 30.605469 93.511719 30.605469 Z M 93.511719 30.605469 " style="stroke: none; fill-rule: nonzero; fill: rgb(255, 255, 255); fill-opacity: 1;"/><path d="M 93.511719 97.636719 C 85.691406 97.636719 78.804688 95.667969 73.050781 91.78125 C 67.3125 87.914062 62.851562 82.3125 59.792969 75.140625 C 56.808594 68.148438 55.292969 59.6875 55.292969 50 C 55.292969 40.3125 56.808594 31.855469 59.792969 24.859375 C 62.851562 17.6875 67.3125 12.089844 73.050781 8.214844 C 78.808594 4.332031 85.691406 2.363281 93.511719 2.363281 C 101.332031 2.363281 108.214844 4.332031 113.972656 8.214844 C 119.703125 12.085938 124.183594 17.679688 127.285156 24.84375 C 130.316406 31.84375 131.851562 40.308594 131.851562 50 C 131.851562 59.773438 130.316406 68.28125 127.289062 75.277344 C 124.183594 82.449219 119.699219 88.027344 113.957031 91.855469 C 108.203125 95.691406 101.324219 97.636719 93.511719 97.636719 Z M 93.511719 28.449219 C 91.605469 28.449219 88.8125 28.933594 86.597656 33.136719 C 84.605469 36.917969 83.597656 42.59375 83.597656 50 C 83.597656 57.410156 84.605469 63.082031 86.597656 66.863281 C 88.8125 71.066406 91.605469 71.550781 93.511719 71.550781 C 95.421875 71.550781 98.222656 71.058594 100.492188 66.789062 C 102.519531 62.96875 103.550781 57.359375 103.550781 50.121094 C 103.550781 42.730469 102.503906 37.046875 100.441406 33.230469 C 98.125 28.941406 95.375 28.449219 93.511719 28.449219 Z M 93.511719 28.449219 " style="stroke: none; fill-rule: nonzero; fill: rgb(0, 0, 0); fill-opacity: 1;"/><path d="M 93.511719 94.398438 C 86.308594 94.398438 80.085938 92.628906 74.847656 89.097656 C 69.609375 85.5625 65.578125 80.484375 62.753906 73.863281 C 59.929688 67.246094 58.519531 59.292969 58.519531 50 C 58.519531 40.710938 59.929688 32.753906 62.753906 26.136719 C 65.578125 19.519531 69.609375 14.441406 74.847656 10.90625 C 80.085938 7.371094 86.308594 5.601562 93.511719 5.601562 C 100.714844 5.601562 106.9375 7.371094 112.175781 10.902344 C 117.414062 14.441406 121.464844 19.519531 124.332031 26.136719 C 127.195312 32.753906 128.628906 40.710938 128.628906 50 C 128.628906 59.371094 127.195312 67.371094 124.332031 73.988281 C 121.464844 80.605469 117.414062 85.664062 112.175781 89.15625 C 106.9375 92.652344 100.714844 94.398438 93.511719 94.398438 Z M 93.511719 74.789062 C 97.765625 74.789062 101.042969 72.632812 103.335938 68.3125 C 105.625 64 106.773438 57.9375 106.773438 50.121094 C 106.773438 42.148438 105.605469 36 103.273438 31.683594 C 100.941406 27.367188 97.6875 25.210938 93.511719 25.210938 C 89.253906 25.210938 86 27.347656 83.75 31.621094 C 81.496094 35.898438 80.375 42.027344 80.375 50 C 80.375 57.976562 81.496094 64.101562 83.75 68.375 C 86 72.652344 89.253906 74.789062 93.511719 74.789062 Z M 93.511719 74.789062 " style="stroke: none; fill-rule: nonzero; fill: rgb(255, 255, 255); fill-opacity: 1;"/></g></svg>