<svg xmlns="http://www.w3.org/2000/svg" id="AVATAR_VISITOR" name="AVATAR_VISITOR" data-testid="AVATAR_VISITOR" viewBox="0 0 24 24" class="style__StyledSVG-sc-1q4gzla-0 jgxQjV styles__StyledVisitorAvatarIcon-sc-74sban-2 dbuXUA"><g fill="#F0F0F0"><circle cx="12" cy="12" r="12" opacity=".3"/><path d="M12,0 C18.627417,0 24,5.372583 24,12 C24,18.627417 18.627417,24 12,24 C5.372583,24 0,18.627417 0,12 C0,5.372583 5.372583,0 12,0 Z M11.9988571,6.54461493 C9.92776731,6.54461493 9.19294843,8.05500896 9.19294843,9.34813054 C9.19294843,11.3876881 9.58386926,11.903535 10.2751558,12.6401587 C10.7236737,13.1182048 10.9236493,13.7615182 10.8225854,14.4056727 C10.7222701,15.0448742 10.3397245,15.5923073 9.77266226,15.9076094 C8.38654257,16.6785762 7.28677063,17.4390765 6.67617612,18.0488411 C6.09437637,18.630288 5.85051782,19.5563048 5.74600203,20.4346617 C7.4927209,21.7323996 9.65671911,22.5 12,22.5 C14.3497751,22.5 16.5192725,21.728139 18.26878,20.424129 C18.1552251,19.5498393 17.9027994,18.6268965 17.3243642,18.0488411 C16.7137696,17.4390765 15.6140445,16.6785762 14.227878,15.9076094 C13.6601421,15.5923073 13.2775964,15.0448742 13.1772811,14.4056727 C13.0768722,13.7615182 13.2761927,13.1182048 13.7247106,12.6401587 C14.4159692,11.903535 14.8075918,11.3876881 14.8075918,9.34813054 C14.8075918,8.05500896 14.0720711,6.54461493 11.9988571,6.54461493 Z M12,1.5 C6.20101012,1.5 1.5,6.20101012 1.5,12 C1.5,14.7994399 2.59554135,17.3430023 4.38127953,19.2253429 C4.52408621,18.2428611 4.86550862,17.8749622 5.68378459,17.0577984 C6.61090568,16.1318907 8.1514286,15.2046746 9.08977903,14.6832207 C9.48842006,14.461743 9.56281431,13.9304768 9.25120054,13.5982601 C8.27635483,12.5602585 7.78928289,11.6841599 7.78928289,9.34813054 C7.78928289,7.24549383 9.19294843,5.14285714 11.9988571,5.14285714 C14.8075918,5.14285714 16.2112574,7.24549383 16.2112574,9.34813054 C16.2112574,11.6841599 15.7235304,12.5602585 14.7486379,13.5982601 C14.4370241,13.9304768 14.512167,14.461743 14.9100594,14.6832207 C15.8484567,15.2046746 17.3889327,16.1318907 18.3167557,17.0577984 C19.130925,17.8713142 19.4876151,18.2408743 19.6299849,19.2132603 C21.408732,17.3330701 22.5,14.7939747 22.5,12 C22.5,6.20101012 17.7989899,1.5 12,1.5 Z"/></g></svg>