<svg xmlns="http://www.w3.org/2000/svg" id="TOP_TEN_4" name="TOP_TEN_4" data-testid="TOP_TEN_4" width="100%" height="100%" fill="#000" viewBox="0 0 83 100" class="style__StyledSVG-sc-1q4gzla-0 jAtUyH"><g id="surface1"><path d="M 40.109375 100 L 40.109375 83.023438 L 0.0390625 83.023438 L 0.0390625 61.097656 L 39.039062 0 L 72.363281 0 L 72.363281 54.535156 L 82.960938 54.535156 L 82.960938 83.023438 L 72.363281 83.023438 L 72.363281 100 Z M 40.109375 54.535156 L 40.109375 49.597656 L 36.992188 54.535156 Z M 40.109375 54.535156 " style="stroke: none; fill-rule: nonzero; fill: rgb(255, 255, 255); fill-opacity: 1;"/><path d="M 42.371094 97.75 L 42.371094 80.769531 L 2.300781 80.769531 L 2.300781 61.75 L 40.28125 2.25 L 70.101562 2.25 L 70.101562 56.785156 L 80.699219 56.785156 L 80.699219 80.773438 L 70.101562 80.773438 L 70.101562 97.75 Z M 42.371094 56.785156 L 42.371094 41.785156 L 32.902344 56.785156 Z M 42.371094 56.785156 " style="stroke: none; fill-rule: nonzero; fill: rgb(35, 31, 32); fill-opacity: 1;"/><path d="M 42.148438 5.625 L 66.707031 5.625 L 66.707031 60.160156 L 77.308594 60.160156 L 77.308594 77.394531 L 66.707031 77.394531 L 66.707031 94.375 L 45.765625 94.375 L 45.765625 77.394531 L 5.691406 77.394531 L 5.691406 62.734375 Z M 26.765625 60.160156 L 45.765625 60.160156 L 45.765625 30.0625 Z M 26.765625 60.160156 " style="stroke: none; fill-rule: nonzero; fill: rgb(255, 255, 255); fill-opacity: 1;"/></g></svg>