<svg xmlns="http://www.w3.org/2000/svg" id="TOP_TEN_2" name="TOP_TEN_2" data-testid="TOP_TEN_2" width="100%" height="100%" fill="#000" viewBox="0 0 73 100" class="style__StyledSVG-sc-1q4gzla-0 jAtUyH"><g id="surface1"><path d="M 2.667969 99.871094 L 2.667969 79.640625 C 2.667969 73.707031 3.679688 68.335938 5.679688 63.675781 C 7.703125 58.949219 11.042969 54.519531 15.601562 50.511719 C 19.859375 46.769531 25.527344 42.992188 32.453125 39.285156 C 36.699219 36.960938 38.4375 35.390625 39.09375 34.664062 C 39.765625 33.914062 40.054688 33.25 40.054688 32.441406 C 40.054688 31.636719 39.871094 31.464844 39.554688 31.230469 C 39.160156 30.941406 37.914062 30.269531 34.894531 30.269531 C 32.140625 30.269531 29.261719 31.140625 26.332031 32.859375 C 23.273438 34.652344 20.742188 37.027344 18.796875 39.925781 L 13.324219 48.097656 L 0 18.507812 L 2.15625 15.863281 C 6.089844 11.03125 11.183594 7.15625 17.300781 4.339844 C 23.375 1.542969 29.671875 0.128906 36.019531 0.128906 C 46.996094 0.128906 55.875 3.011719 62.417969 8.707031 C 69.191406 14.601562 72.625 22.589844 72.625 32.441406 C 72.625 39.355469 70.371094 45.597656 65.929688 50.996094 C 61.800781 56.007812 55.394531 60.792969 46.335938 65.625 C 42.941406 67.417969 40.679688 68.859375 39.167969 69.980469 L 73 69.980469 L 73 99.871094 Z M 2.667969 99.871094 " style="stroke: none; fill-rule: nonzero; fill: rgb(255, 255, 255); fill-opacity: 1;"/><path d="M 4.855469 97.667969 L 4.855469 79.640625 C 4.855469 74.007812 5.808594 68.933594 7.6875 64.550781 C 9.582031 60.128906 12.730469 55.960938 17.042969 52.167969 C 21.171875 48.535156 26.703125 44.859375 33.480469 41.230469 C 37.796875 38.871094 39.800781 37.160156 40.714844 36.140625 C 41.753906 34.984375 42.242188 33.804688 42.242188 32.441406 C 42.242188 31.0625 41.824219 30.167969 40.839844 29.449219 C 39.605469 28.546875 37.550781 28.066406 34.894531 28.066406 C 31.75 28.066406 28.5 29.039062 25.230469 30.953125 C 21.886719 32.914062 19.113281 35.519531 16.984375 38.695312 L 13.699219 43.597656 L 2.554688 18.847656 L 3.847656 17.257812 C 7.566406 12.691406 12.402344 9.019531 18.210938 6.34375 C 24 3.679688 29.988281 2.332031 36.019531 2.332031 C 46.453125 2.332031 54.855469 5.035156 60.988281 10.371094 C 67.257812 15.832031 70.4375 23.257812 70.4375 32.441406 C 70.4375 38.828125 68.351562 44.597656 64.242188 49.589844 C 60.304688 54.375 54.109375 58.984375 45.308594 63.679688 C 40.546875 66.195312 37.234375 68.417969 35.449219 70.285156 C 34.875 70.886719 34.398438 71.519531 34.019531 72.183594 L 70.8125 72.183594 L 70.8125 97.667969 Z M 4.855469 97.667969 " style="stroke: none; fill-rule: nonzero; fill: rgb(35, 31, 32); fill-opacity: 1;"/><path d="M 8.136719 94.367188 L 8.136719 79.640625 C 8.136719 74.4375 8.992188 69.84375 10.699219 65.859375 C 12.40625 61.875 15.242188 58.140625 19.203125 54.65625 C 23.160156 51.175781 28.433594 47.671875 35.019531 44.148438 C 38.851562 42.050781 41.5625 40.121094 43.148438 38.359375 C 44.730469 36.597656 45.523438 34.625 45.523438 32.441406 C 45.523438 30.007812 44.605469 28.121094 42.773438 26.777344 C 40.9375 25.4375 38.3125 24.765625 34.894531 24.765625 C 31.144531 24.765625 27.371094 25.878906 23.578125 28.101562 C 19.785156 30.324219 16.679688 33.242188 14.265625 36.847656 L 6.386719 19.351562 C 9.804688 15.15625 14.199219 11.824219 19.578125 9.347656 C 24.953125 6.871094 30.433594 5.632812 36.019531 5.632812 C 45.691406 5.632812 53.296875 8.046875 58.839844 12.871094 C 64.382812 17.695312 67.15625 24.21875 67.15625 32.441406 C 67.15625 38.066406 65.34375 43.078125 61.714844 47.484375 C 58.089844 51.886719 52.109375 56.316406 43.773438 60.761719 C 38.6875 63.449219 35.125 65.859375 33.082031 68 C 31.039062 70.136719 29.894531 72.636719 29.644531 75.488281 L 67.53125 75.488281 L 67.53125 94.367188 Z M 8.136719 94.367188 " style="stroke: none; fill-rule: nonzero; fill: rgb(255, 255, 255); fill-opacity: 1;"/></g></svg>