<svg xmlns="http://www.w3.org/2000/svg" id="SEARCH" name="SEARCH"  fill="#FFF" data-testid="SEARCH" viewBox="0 0 24 24" class="style__StyledSVG-sc-1q4gzla-0 jgxQjV"><path d="M17.146,16.0855 L22.5002,21.439 L21.4397,22.5002 L16.0855,17.146 C16.4657,16.8197 16.8197,16.4657 17.146,16.0855 L17.146,16.0855 Z M9.74999999,1.49999996 C14.3062,1.49999996 18,5.19374997 18,9.74999999 C18,14.3062 14.3062,18 9.74999999,18 C5.19374997,18 1.49999996,14.3062 1.49999996,9.74999999 C1.49999996,5.19374997 5.19374997,1.49999996 9.74999999,1.49999996 Z M9.74999999,2.99999996 C6.02774998,2.99999996 2.99999996,6.02774998 2.99999996,9.74999999 C2.99999996,13.4715 6.02774998,16.5 9.74999999,16.5 C13.4715,16.5 16.5,13.4715 16.5,9.74999999 C16.5,6.02774998 13.4715,2.99999996 9.74999999,2.99999996 Z"/></svg>