<svg xmlns="http://www.w3.org/2000/svg" id="TOP_TEN_5" name="TOP_TEN_5" data-testid="TOP_TEN_5" width="100%" height="100%" fill="#000" viewBox="0 0 77 100" class="style__StyledSVG-sc-1q4gzla-0 jAtUyH"><g id="surface1"><path d="M 37.460938 100 C 30.730469 100 24.511719 99.054688 18.984375 97.183594 C 13.398438 95.296875 8.128906 92.339844 3.324219 88.394531 L 0.0976562 85.742188 L 11.648438 59.402344 L 4.25 55.574219 L 7.855469 0 L 72.347656 0 L 72.347656 29.96875 L 48.625 29.96875 C 53.332031 30.457031 57.648438 31.894531 61.496094 34.261719 C 66.296875 37.214844 70.113281 41.324219 72.84375 46.472656 C 75.539062 51.542969 76.902344 57.378906 76.902344 63.816406 C 76.902344 70.875 75.207031 77.230469 71.859375 82.714844 C 68.5 88.214844 63.746094 92.535156 57.730469 95.558594 C 51.867188 98.507812 45.046875 100 37.460938 100 Z M 21.578125 64.542969 C 26.09375 68.105469 30.613281 69.90625 35.058594 69.90625 C 37.960938 69.90625 40.132812 69.273438 41.691406 67.972656 C 43.007812 66.878906 43.566406 65.558594 43.566406 63.566406 C 43.566406 61.226562 42.835938 60.277344 42.117188 59.65625 C 40.929688 58.628906 39.023438 58.105469 36.449219 58.105469 C 34.804688 58.105469 33.277344 58.484375 31.785156 59.253906 C 30.226562 60.058594 28.933594 61.160156 27.824219 62.613281 L 25.003906 66.316406 Z M 35.386719 31.152344 C 37.222656 30.578125 39.167969 30.183594 41.21875 29.96875 L 35.460938 29.96875 Z M 35.386719 31.152344 " style="stroke: none; fill-rule: nonzero; fill: rgb(255, 255, 255); fill-opacity: 1;"/><path d="M 37.460938 97.792969 C 30.972656 97.792969 24.996094 96.882812 19.695312 95.09375 C 14.363281 93.292969 9.328125 90.464844 4.734375 86.691406 L 2.796875 85.097656 L 13.683594 60.28125 L 17.117188 63.574219 C 23.023438 69.242188 29.0625 72.113281 35.058594 72.113281 C 38.503906 72.113281 41.136719 71.3125 43.113281 69.667969 C 44.933594 68.148438 45.78125 66.210938 45.78125 63.5625 C 45.78125 61.066406 45.078125 59.296875 43.570312 57.988281 C 41.96875 56.601562 39.570312 55.898438 36.449219 55.898438 C 34.441406 55.898438 32.582031 56.355469 30.765625 57.292969 C 28.914062 58.253906 27.371094 59.554688 26.0625 61.277344 L 24.371094 63.496094 L 6.554688 54.277344 L 9.929688 2.207031 L 70.136719 2.207031 L 70.136719 27.757812 L 33.375 27.757812 L 32.96875 34.46875 C 36.421875 32.820312 40.421875 31.988281 44.925781 31.988281 C 50.671875 31.988281 55.855469 33.382812 60.332031 36.140625 C 64.792969 38.886719 68.34375 42.707031 70.886719 47.503906 C 73.410156 52.253906 74.6875 57.746094 74.6875 63.816406 C 74.6875 70.460938 73.101562 76.433594 69.96875 81.566406 C 66.824219 86.707031 62.371094 90.753906 56.734375 93.589844 C 51.183594 96.378906 44.699219 97.792969 37.460938 97.792969 Z M 37.460938 97.792969 " style="stroke: none; fill-rule: nonzero; fill: rgb(0, 0, 0); fill-opacity: 1;"/><path d="M 37.460938 94.480469 C 31.304688 94.480469 25.738281 93.636719 20.761719 91.957031 C 15.785156 90.273438 11.144531 87.667969 6.84375 84.132812 L 14.8125 65.960938 C 21.394531 72.273438 28.140625 75.425781 35.058594 75.425781 C 39.273438 75.425781 42.667969 74.355469 45.242188 72.207031 C 47.8125 70.0625 49.101562 67.183594 49.101562 63.566406 C 49.101562 60.117188 47.980469 57.425781 45.746094 55.488281 C 43.511719 53.554688 40.414062 52.585938 36.449219 52.585938 C 33.917969 52.585938 31.515625 53.175781 29.238281 54.355469 C 26.960938 55.53125 25.019531 57.171875 23.417969 59.273438 L 10.007812 52.335938 L 13.042969 5.519531 L 66.816406 5.519531 L 66.816406 24.449219 L 30.25 24.449219 L 29.238281 41.105469 C 33.117188 37.234375 38.347656 35.300781 44.925781 35.300781 C 50.070312 35.300781 54.625 36.519531 58.589844 38.957031 C 62.554688 41.398438 65.675781 44.765625 67.953125 49.054688 C 70.230469 53.34375 71.371094 58.265625 71.371094 63.816406 C 71.371094 69.875 69.957031 75.214844 67.132812 79.84375 C 64.304688 84.46875 60.339844 88.066406 55.238281 90.632812 C 50.132812 93.195312 44.207031 94.480469 37.460938 94.480469 Z M 37.460938 94.480469 " style="stroke: none; fill-rule: nonzero; fill: rgb(255, 255, 255); fill-opacity: 1;"/></g></svg>