<svg xmlns="http://www.w3.org/2000/svg" id="TOP_TEN_8" name="TOP_TEN_8" data-testid="TOP_TEN_8" width="100%" height="100%" fill="#000" viewBox="0 0 77 99" class="style__StyledSVG-sc-1q4gzla-0 jAtUyH"><g id="surface1"><path d="M 38.5 98.894531 C 31.175781 98.894531 24.625 97.730469 19.027344 95.429688 C 13.144531 93.019531 8.472656 89.464844 5.140625 84.863281 C 1.730469 80.164062 0 74.601562 0 68.339844 C 0 62.269531 1.695312 56.980469 5.042969 52.617188 C 6.515625 50.695312 8.300781 48.949219 10.367188 47.402344 C 8.894531 46.054688 7.605469 44.558594 6.511719 42.9375 C 3.660156 38.714844 2.214844 33.84375 2.214844 28.457031 C 2.214844 22.820312 3.875 17.738281 7.152344 13.34375 C 10.304688 9.117188 14.699219 5.792969 20.207031 3.46875 C 25.492188 1.234375 31.644531 0.105469 38.5 0.105469 C 45.351562 0.105469 51.507812 1.234375 56.792969 3.46875 C 62.300781 5.792969 66.695312 9.117188 69.847656 13.339844 C 73.125 17.734375 74.785156 22.820312 74.785156 28.457031 C 74.785156 33.839844 73.335938 38.710938 70.488281 42.9375 C 69.394531 44.558594 68.101562 46.050781 66.632812 47.402344 C 68.699219 48.949219 70.484375 50.695312 71.960938 52.617188 C 75.304688 56.984375 77 62.273438 77 68.339844 C 77 74.601562 75.269531 80.160156 71.859375 84.863281 C 68.527344 89.464844 63.855469 93.015625 57.976562 95.429688 C 52.375 97.730469 45.820312 98.894531 38.5 98.894531 Z M 38.5 61.457031 C 36.640625 61.457031 35.277344 61.945312 34.207031 62.988281 C 33.167969 64 32.683594 65.273438 32.683594 66.996094 C 32.683594 68.71875 33.167969 69.992188 34.207031 71 C 35.277344 72.046875 36.640625 72.53125 38.5 72.53125 C 40.359375 72.53125 41.722656 72.046875 42.792969 71.003906 C 43.832031 69.988281 44.316406 68.714844 44.316406 66.996094 C 44.316406 65.273438 43.832031 64 42.792969 62.988281 C 41.722656 61.945312 40.359375 61.457031 38.5 61.457031 Z M 38.5 26.46875 C 36.78125 26.46875 35.5625 26.871094 34.65625 27.734375 C 33.789062 28.554688 33.421875 29.578125 33.421875 31.148438 C 33.421875 32.769531 33.863281 33.984375 34.8125 34.964844 C 35.726562 35.914062 36.828125 36.316406 38.5 36.316406 C 40.171875 36.316406 41.269531 35.914062 42.183594 34.96875 C 43.136719 33.984375 43.578125 32.769531 43.578125 31.148438 C 43.578125 29.140625 42.875 28.238281 42.347656 27.734375 C 41.4375 26.871094 40.214844 26.46875 38.5 26.46875 Z M 38.5 26.46875 " style="stroke: none; fill-rule: nonzero; fill: rgb(255, 255, 255); fill-opacity: 1;"/><path d="M 38.5 96.753906 C 31.460938 96.753906 25.183594 95.644531 19.847656 93.453125 C 14.34375 91.195312 9.980469 87.882812 6.886719 83.613281 C 3.746094 79.285156 2.152344 74.144531 2.152344 68.339844 C 2.152344 62.75 3.703125 57.894531 6.753906 53.914062 C 8.628906 51.46875 11.035156 49.347656 13.945312 47.570312 C 11.6875 45.914062 9.800781 43.96875 8.304688 41.746094 C 5.695312 37.882812 4.371094 33.410156 4.371094 28.457031 C 4.371094 23.289062 5.890625 18.632812 8.882812 14.617188 C 11.804688 10.699219 15.898438 7.613281 21.050781 5.4375 C 26.066406 3.320312 31.9375 2.246094 38.5 2.246094 C 45.0625 2.246094 50.933594 3.320312 55.949219 5.4375 C 61.101562 7.613281 65.195312 10.703125 68.117188 14.617188 C 71.113281 18.632812 72.628906 23.289062 72.628906 28.457031 C 72.628906 33.40625 71.308594 37.878906 68.695312 41.746094 C 67.199219 43.964844 65.308594 45.914062 63.050781 47.570312 C 65.960938 49.347656 68.371094 51.46875 70.246094 53.914062 C 73.296875 57.898438 74.847656 62.753906 74.847656 68.339844 C 74.847656 74.140625 73.253906 79.28125 70.113281 83.613281 C 67.015625 87.882812 62.65625 91.191406 57.152344 93.453125 C 51.8125 95.644531 45.539062 96.753906 38.5 96.753906 Z M 38.5 59.316406 C 36.074219 59.316406 34.179688 60.019531 32.699219 61.457031 C 31.238281 62.882812 30.53125 64.691406 30.53125 66.996094 C 30.53125 69.300781 31.238281 71.109375 32.699219 72.53125 C 34.175781 73.972656 36.074219 74.671875 38.5 74.671875 C 40.925781 74.671875 42.824219 73.972656 44.300781 72.53125 C 45.761719 71.109375 46.46875 69.300781 46.46875 66.996094 C 46.46875 64.691406 45.761719 62.882812 44.300781 61.457031 C 42.824219 60.019531 40.925781 59.316406 38.5 59.316406 Z M 38.5 24.328125 C 36.222656 24.328125 34.480469 24.9375 33.164062 26.1875 C 31.871094 27.421875 31.269531 28.996094 31.269531 31.148438 C 31.269531 33.328125 31.917969 35.0625 33.261719 36.449219 C 34.582031 37.820312 36.246094 38.460938 38.5 38.460938 C 40.753906 38.460938 42.417969 37.820312 43.738281 36.449219 C 45.082031 35.058594 45.734375 33.324219 45.734375 31.148438 C 45.734375 29.027344 45.113281 27.40625 43.835938 26.1875 C 42.519531 24.9375 40.773438 24.328125 38.5 24.328125 Z M 38.5 24.328125 " style="stroke: none; fill-rule: nonzero; fill: rgb(0, 0, 0); fill-opacity: 1;"/><path d="M 38.5 93.542969 C 31.851562 93.542969 26.046875 92.523438 21.082031 90.484375 C 16.113281 88.445312 12.257812 85.53125 9.507812 81.738281 C 6.757812 77.945312 5.386719 73.480469 5.386719 68.339844 C 5.386719 63.445312 6.699219 59.289062 9.324219 55.863281 C 11.949219 52.4375 15.765625 49.746094 20.773438 47.789062 C 16.503906 45.910156 13.242188 43.304688 10.988281 39.957031 C 8.726562 36.613281 7.601562 32.78125 7.601562 28.457031 C 7.601562 23.972656 8.894531 19.996094 11.480469 16.53125 C 14.0625 13.0625 17.675781 10.351562 22.3125 8.394531 C 26.949219 6.433594 32.34375 5.457031 38.5 5.457031 C 44.65625 5.457031 50.050781 6.433594 54.6875 8.394531 C 59.324219 10.351562 62.9375 13.0625 65.519531 16.527344 C 68.105469 19.996094 69.398438 23.972656 69.398438 28.457031 C 69.398438 32.78125 68.269531 36.613281 66.011719 39.957031 C 63.753906 43.300781 60.492188 45.910156 56.226562 47.785156 C 61.230469 49.742188 65.046875 52.4375 67.675781 55.863281 C 70.300781 59.289062 71.613281 63.445312 71.613281 68.339844 C 71.613281 73.480469 70.238281 77.945312 67.492188 81.738281 C 64.742188 85.53125 60.882812 88.445312 55.917969 90.484375 C 50.953125 92.523438 45.148438 93.542969 38.5 93.542969 Z M 38.5 77.882812 C 41.78125 77.882812 44.46875 76.863281 46.5625 74.824219 C 48.65625 72.785156 49.703125 70.175781 49.703125 66.996094 C 49.703125 63.8125 48.65625 61.203125 46.5625 59.164062 C 44.46875 57.128906 41.78125 56.105469 38.5 56.105469 C 35.214844 56.105469 32.53125 57.128906 30.4375 59.164062 C 28.34375 61.203125 27.296875 63.8125 27.296875 66.996094 C 27.296875 70.175781 28.34375 72.785156 30.4375 74.824219 C 32.53125 76.863281 35.214844 77.882812 38.5 77.882812 Z M 38.5 41.671875 C 41.617188 41.671875 44.140625 40.671875 46.070312 38.671875 C 48 36.675781 48.964844 34.167969 48.964844 31.148438 C 48.964844 28.132812 48 25.703125 46.070312 23.867188 C 44.140625 22.035156 41.617188 21.117188 38.5 21.117188 C 35.378906 21.117188 32.855469 22.035156 30.929688 23.867188 C 29 25.703125 28.035156 28.132812 28.035156 31.148438 C 28.035156 34.167969 29 36.675781 30.929688 38.671875 C 32.855469 40.671875 35.378906 41.671875 38.5 41.671875 Z M 38.5 41.671875 " style="stroke: none; fill-rule: nonzero; fill: rgb(255, 255, 255); fill-opacity: 1;"/></g></svg>